# xmcd
#
# Track frame offsets:
#        187
#        19427
#        35615
#        45752
#        58167
#        75702
#        89920
#        107690
#        125055
#        138560
#        158677
#
# Disc length: 2317 seconds
#
# Revision: 0
# Processed by: cddbd v1.5PL3 Copyright (c) Steve Scherf et al.
# Submitted via: ExactAudioCopy v0.95a4
#
DISCID=96090b0b
DTITLE=Various Artist - SWEDISH SWeeTS
DYEAR=1900
DGENRE=Pop
TTITLE0=Happydeadmen - Science Fiction
TTITLE1=Wish - Fool for love
TTITLE2=The Daffodils - All I Have To Do
TTITLE3=The Confusions - I am the warden
TTITLE4=The Confusions - Sorry she is
TTITLE5=Mats - Only For A Day
TTITLE6=Wish - Snowflakes
TTITLE7=Green - My special applepie
TTITLE8=Green - Beach
TTITLE9=Scents - Sesame Seeds
TTITLE10=Happydeadmen - Feels Like Heaven
EXTD=
EXTT0=
EXTT1=
EXTT2=
EXTT3=
EXTT4=
EXTT5=
EXTT6=
EXTT7=
EXTT8=
EXTT9=
EXTT10=
PLAYORDER=
